<svg width="562" height="200" viewBox="0 0 562 200" fill="none" xmlns="http://www.w3.org/2000/svg">
<path d="M252.055 105.562C252.055 111.5 250.414 116.292 247.133 119.938C243.904 123.531 239.398 125.328 233.617 125.328C227.94 125.328 223.617 123.427 220.648 119.625C217.888 116.083 216.508 111.396 216.508 105.562V72.8281H223.617V105.562C223.617 114.729 227.003 119.339 233.773 119.391C237.576 119.391 240.414 117.984 242.289 115.172C244.008 112.776 244.867 109.573 244.867 105.562V72.8281H252.055V105.562ZM291.508 124V100.016H269.242V124H262.133V72.8281H269.242V94H291.508V72.8281H298.539V124H291.508ZM313.461 103.453C313.461 111.37 315.701 116.318 320.18 118.297C321.951 119.078 323.799 119.495 325.727 119.547C328.852 119.547 332.341 117.828 336.195 114.391L339.398 118.844C335.128 122.906 330.362 124.938 325.102 124.938C317.862 124.938 312.706 122.229 309.633 116.812C307.654 113.323 306.664 109.13 306.664 104.234C306.664 98.1406 308.253 93.2188 311.43 89.4688C314.815 85.4583 319.503 83.4531 325.492 83.4531C329.867 83.4531 333.357 84.8594 335.961 87.6719C338.565 90.4844 339.867 94.1042 339.867 98.5312V103.453H313.461ZM333.539 97.4375C333.539 91.6042 330.648 88.6875 324.867 88.6875C321.69 88.6875 319.294 89.4948 317.68 91.1094C316.065 92.6719 314.841 95.0938 314.008 98.375H333.539V97.4375ZM374.242 124.859C372.055 124.859 370.388 123.583 369.242 121.031C367.628 122.281 366.247 123.167 365.102 123.688C362.758 124.729 360.076 125.25 357.055 125.25C353.669 125.25 350.987 124.182 349.008 122.047C347.029 119.911 346.039 117.177 346.039 113.844C346.039 109.521 347.341 106.396 349.945 104.469C351.664 103.219 354.893 102.047 359.633 100.953C361.456 100.536 364.346 100.146 368.305 99.7812V94.7031C368.305 92.9323 367.602 91.5 366.195 90.4062C364.841 89.2604 363.279 88.6875 361.508 88.6875C358.591 88.6875 355.023 90.4062 350.805 93.8438L347.523 89.3906C349.19 87.8802 351.378 86.474 354.086 85.1719C357.055 83.7135 359.529 83.0104 361.508 83.0625C365.206 83.0625 368.305 84.2083 370.805 86.5C373.305 88.7917 374.555 91.7604 374.555 95.4062V117.984C374.815 119.026 375.362 119.573 376.195 119.625C376.768 119.677 377.888 119.104 379.555 117.906L380.805 122.047C379.034 123.922 376.846 124.859 374.242 124.859ZM368.305 105.328C366.742 105.328 364.711 105.589 362.211 106.109C360.753 106.37 359.216 106.708 357.602 107.125C353.747 108.115 351.82 110.38 351.82 113.922C351.82 115.849 352.367 117.385 353.461 118.531C354.555 119.677 356.065 120.25 357.992 120.25C360.076 120.25 362.185 119.677 364.32 118.531C366.924 117.177 368.253 115.484 368.305 113.453V105.328ZM417.836 124H412.523L411.586 120.641C407.263 123.557 403.565 125.016 400.492 125.016C395.544 125.016 391.612 122.75 388.695 118.219C386.195 114.312 384.945 109.755 384.945 104.547C384.945 98.5573 386.273 93.6354 388.93 89.7812C392.003 85.3021 396.404 83.0625 402.133 83.0625C405.883 83.0625 409.034 84.599 411.586 87.6719V68.2188H417.836V124ZM411.586 93.6094C410.076 91.5781 408.695 90.224 407.445 89.5469C406.195 88.8698 404.32 88.5312 401.82 88.5312C398.227 88.5312 395.622 90.276 394.008 93.7656C392.706 96.3698 392.055 99.6771 392.055 103.688C392.055 107.698 392.81 111.083 394.32 113.844C396.143 117.385 398.878 119.156 402.523 119.156C405.753 119.156 408.773 117.932 411.586 115.484V93.6094ZM435.336 124H429.086V68.1406H435.336V124ZM451.43 103.453C451.43 111.37 453.669 116.318 458.148 118.297C459.919 119.078 461.768 119.495 463.695 119.547C466.82 119.547 470.31 117.828 474.164 114.391L477.367 118.844C473.096 122.906 468.331 124.938 463.07 124.938C455.831 124.938 450.674 122.229 447.602 116.812C445.622 113.323 444.633 109.13 444.633 104.234C444.633 98.1406 446.221 93.2188 449.398 89.4688C452.784 85.4583 457.471 83.4531 463.461 83.4531C467.836 83.4531 471.326 84.8594 473.93 87.6719C476.534 90.4844 477.836 94.1042 477.836 98.5312V103.453H451.43ZM471.508 97.4375C471.508 91.6042 468.617 88.6875 462.836 88.6875C459.659 88.6875 457.263 89.4948 455.648 91.1094C454.034 92.6719 452.81 95.0938 451.977 98.375H471.508V97.4375ZM497.836 125.094C492.367 125.094 487.94 123.557 484.555 120.484L487.758 115.562C490.518 118.219 494.086 119.573 498.461 119.625C500.336 119.625 502.081 118.922 503.695 117.516C505.31 116.109 506.117 114.521 506.117 112.75C506.117 109.833 504.008 107.802 499.789 106.656C496.56 105.823 493.357 104.807 490.18 103.609C487.107 101.995 485.544 99.2604 485.492 95.4062C485.492 91.5521 486.716 88.5052 489.164 86.2656C491.664 83.974 494.841 82.8542 498.695 82.9062C502.341 82.9583 506.195 84.1823 510.258 86.5781L508.148 91.5781C504.398 89.1823 501.169 87.9844 498.461 87.9844C493.826 87.9844 491.508 89.9375 491.508 93.8438C491.508 95.9792 492.576 97.4115 494.711 98.1406C496.169 98.6094 500.023 99.8594 506.273 101.891C510.544 103.87 512.68 106.995 512.68 111.266C512.68 115.589 511.299 118.974 508.539 121.422C505.779 123.87 502.211 125.094 497.836 125.094ZM532.758 125.094C527.289 125.094 522.862 123.557 519.477 120.484L522.68 115.562C525.44 118.219 529.008 119.573 533.383 119.625C535.258 119.625 537.003 118.922 538.617 117.516C540.232 116.109 541.039 114.521 541.039 112.75C541.039 109.833 538.93 107.802 534.711 106.656C531.482 105.823 528.279 104.807 525.102 103.609C522.029 101.995 520.466 99.2604 520.414 95.4062C520.414 91.5521 521.638 88.5052 524.086 86.2656C526.586 83.974 529.763 82.8542 533.617 82.9062C537.263 82.9583 541.117 84.1823 545.18 86.5781L543.07 91.5781C539.32 89.1823 536.091 87.9844 533.383 87.9844C528.747 87.9844 526.43 89.9375 526.43 93.8438C526.43 95.9792 527.497 97.4115 529.633 98.1406C531.091 98.6094 534.945 99.8594 541.195 101.891C545.466 103.87 547.602 106.995 547.602 111.266C547.602 115.589 546.221 118.974 543.461 121.422C540.701 123.87 537.133 125.094 532.758 125.094Z" fill="white"/>
<g filter="url(#filter0_d_404_111)">
<path d="M90 5.7735C96.188 2.20085 103.812 2.20085 110 5.7735L176.603 44.2265C182.791 47.7992 186.603 54.4017 186.603 61.547V138.453C186.603 145.598 182.791 152.201 176.603 155.774L110 194.226C103.812 197.799 96.188 197.799 90 194.226L23.3975 155.774C17.2094 152.201 13.3975 145.598 13.3975 138.453V61.547C13.3975 54.4017 17.2094 47.7992 23.3975 44.2265L90 5.7735Z" fill="#49A4F8"/>
<path fill-rule="evenodd" clip-rule="evenodd" d="M100.462 58.6249L72.9474 85.2793C64.835 93.138 64.835 106.151 72.9474 114.009L100.463 140.664L99.2814 141.809C91.5254 149.322 79.2058 149.322 71.4499 141.809L42.7537 114.01C34.6414 106.151 34.6413 93.1385 42.7537 85.2798L71.4499 57.481C79.2058 49.9676 91.5254 49.9676 99.2814 57.481L100.462 58.6249ZM100.462 58.6249L101.644 57.4805C109.4 49.9671 121.719 49.9671 129.475 57.4805L158.171 85.2793C166.284 93.138 166.284 106.151 158.171 114.009L129.475 141.808C121.719 149.321 109.4 149.321 101.644 141.808L100.463 140.664L127.978 114.01C136.09 106.151 136.09 93.1385 127.978 85.2798L100.462 58.6249Z" fill="white"/>
</g>
<path d="M100.148 115.797C97.1484 115.797 94.6016 114.859 92.5078 112.984C90.0703 110.797 88.8672 107.703 88.8984 103.703V84.2969H94.5703V103.703C94.5703 106.266 95.2891 108.281 96.7266 109.75C97.9141 110.969 99.2422 111.578 100.711 111.578C102.117 111.578 103.383 110.953 104.508 109.703C105.789 108.234 106.43 106.234 106.43 103.703V84.2969H112.148V103.703C112.148 107.703 110.805 110.812 108.117 113.031C105.867 114.875 103.211 115.797 100.148 115.797Z" fill="white"/>
<defs>
<filter id="filter0_d_404_111" x="13.3975" y="3.09399" width="179.205" height="193.812" filterUnits="userSpaceOnUse" color-interpolation-filters="sRGB">
<feFlood flood-opacity="0" result="BackgroundImageFix"/>
<feColorMatrix in="SourceAlpha" type="matrix" values="0 0 0 0 0 0 0 0 0 0 0 0 0 0 0 0 0 0 127 0" result="hardAlpha"/>
<feOffset dx="6"/>
<feComposite in2="hardAlpha" operator="out"/>
<feColorMatrix type="matrix" values="0 0 0 0 0 0 0 0 0 0 0 0 0 0 0 0 0 0 0.75 0"/>
<feBlend mode="normal" in2="BackgroundImageFix" result="effect1_dropShadow_404_111"/>
<feBlend mode="normal" in="SourceGraphic" in2="effect1_dropShadow_404_111" result="shape"/>
</filter>
</defs>
</svg>
