<svg width="200" height="200" viewBox="0 0 200 200" fill="none" xmlns="http://www.w3.org/2000/svg">
<g filter="url(#filter0_d_404_109)">
<path d="M90 5.7735C96.188 2.20085 103.812 2.20085 110 5.7735L176.603 44.2265C182.791 47.7992 186.603 54.4017 186.603 61.547V138.453C186.603 145.598 182.791 152.201 176.603 155.774L110 194.226C103.812 197.799 96.188 197.799 90 194.226L23.3975 155.774C17.2094 152.201 13.3975 145.598 13.3975 138.453V61.547C13.3975 54.4017 17.2094 47.7992 23.3975 44.2265L90 5.7735Z" fill="#49A4F8"/>
<path fill-rule="evenodd" clip-rule="evenodd" d="M100.462 58.6249L72.9474 85.2793C64.8351 93.138 64.8351 106.151 72.9474 114.009L100.463 140.664L99.2814 141.809C91.5255 149.322 79.2058 149.322 71.4499 141.809L42.7537 114.01C34.6414 106.151 34.6414 93.1385 42.7537 85.2798L71.4499 57.481C79.2058 49.9676 91.5255 49.9676 99.2814 57.481L100.462 58.6249ZM100.462 58.6249L101.644 57.4805C109.4 49.9671 121.719 49.9671 129.475 57.4805L158.171 85.2793C166.284 93.138 166.284 106.151 158.171 114.009L129.475 141.808C121.719 149.321 109.4 149.321 101.644 141.808L100.463 140.664L127.978 114.01C136.09 106.151 136.09 93.1385 127.978 85.2798L100.462 58.6249Z" fill="white"/>
</g>
<path d="M100.148 115.797C97.1484 115.797 94.6016 114.859 92.5078 112.984C90.0703 110.797 88.8672 107.703 88.8984 103.703V84.2969H94.5703V103.703C94.5703 106.266 95.2891 108.281 96.7266 109.75C97.9141 110.969 99.2422 111.578 100.711 111.578C102.117 111.578 103.383 110.953 104.508 109.703C105.789 108.234 106.43 106.234 106.43 103.703V84.2969H112.148V103.703C112.148 107.703 110.805 110.812 108.117 113.031C105.867 114.875 103.211 115.797 100.148 115.797Z" fill="black"/>
<defs>
<filter id="filter0_d_404_109" x="13.3975" y="3.09424" width="179.205" height="193.812" filterUnits="userSpaceOnUse" color-interpolation-filters="sRGB">
<feFlood flood-opacity="0" result="BackgroundImageFix"/>
<feColorMatrix in="SourceAlpha" type="matrix" values="0 0 0 0 0 0 0 0 0 0 0 0 0 0 0 0 0 0 127 0" result="hardAlpha"/>
<feOffset dx="6"/>
<feComposite in2="hardAlpha" operator="out"/>
<feColorMatrix type="matrix" values="0 0 0 0 0 0 0 0 0 0 0 0 0 0 0 0 0 0 0.75 0"/>
<feBlend mode="normal" in2="BackgroundImageFix" result="effect1_dropShadow_404_109"/>
<feBlend mode="normal" in="SourceGraphic" in2="effect1_dropShadow_404_109" result="shape"/>
</filter>
</defs>
</svg>
